<svg width="270" height="124" viewBox="0 0 270 124" fill="none" xmlns="http://www.w3.org/2000/svg">
<path d="M78.2655 19.7602C80.6175 10.6242 84.8895 4.24022 94.5375 1.45622C96.0095 1.02955 96.2068 1.36024 95.1295 2.44824C93.2308 4.36824 91.5242 6.48022 90.0095 8.78422C87.1188 13.1789 83.4228 16.9869 78.9215 20.2082C78.3028 20.6562 78.0842 20.5069 78.2655 19.7602Z" fill="#657ED4"/>
<path d="M77.7813 19.6356L77.7813 19.6356C78.9676 15.0276 80.6486 11.07 83.2812 7.9064C85.9199 4.73538 89.4894 2.39255 94.3986 0.975902L77.7813 19.6356ZM77.7813 19.6356L77.7796 19.6422M77.7813 19.6356L77.7796 19.6422M77.7796 19.6422C77.7299 19.8469 77.6974 20.0487 77.7049 20.229C77.7117 20.3911 77.7577 20.6718 78.0115 20.8451C78.2673 21.0198 78.5467 20.958 78.7005 20.9032C78.8702 20.8426 79.0442 20.7366 79.2137 20.614C83.7618 17.3589 87.5013 13.5073 90.4272 9.05899L90.4273 9.05889M77.7796 19.6422L90.4273 9.05889M90.4273 9.05889C91.9241 6.78203 93.61 4.69598 95.4848 2.80004M90.4273 9.05889L95.4848 2.80004M95.4848 2.80004C95.7626 2.51954 95.9836 2.26325 96.1234 2.03779M95.4848 2.80004L96.1234 2.03779M96.1234 2.03779C96.1928 1.92587 96.2582 1.79652 96.2907 1.65735M96.1234 2.03779L96.2907 1.65735M96.2907 1.65735C96.3237 1.51565 96.332 1.31754 96.2189 1.12801M96.2907 1.65735L96.2189 1.12801M96.2189 1.12801C96.1059 0.938663 95.9279 0.851836 95.7879 0.813488M96.2189 1.12801L95.7879 0.813488M95.7879 0.813488C95.6502 0.775775 95.5054 0.771479 95.3738 0.779046M95.7879 0.813488L95.3738 0.779046M95.3738 0.779046C95.1089 0.794278 94.7781 0.865913 94.3989 0.975819L95.3738 0.779046Z" stroke="#657ED4" stroke-opacity="0.37"/>
<path d="M193.162 18.8642C193.407 19.9522 193.114 20.1176 192.282 19.3602C188.794 16.1762 184.906 13.2162 182.25 9.40824C180.415 6.77357 178.372 4.24024 176.122 1.80824C175.439 1.06157 175.583 0.83225 176.554 1.12025C185.631 3.76558 191.167 9.68025 193.162 18.8642Z" fill="#657ED4"/>
<path d="M191.944 19.7295L191.945 19.73C192.164 19.9296 192.375 20.0944 192.572 20.1977C192.735 20.2835 193.057 20.4167 193.371 20.2398C193.69 20.0603 193.737 19.7109 193.744 19.5264C193.753 19.3057 193.714 19.0424 193.65 18.7562C192.636 14.0911 190.717 10.2313 187.879 7.19857C185.04 4.16577 181.304 1.9841 176.695 0.640552C176.44 0.565034 176.205 0.51236 176.007 0.501939C175.908 0.496742 175.79 0.500235 175.673 0.533662C175.552 0.568119 175.398 0.645475 175.294 0.810334C175.191 0.975323 175.188 1.14844 175.21 1.27253C175.231 1.39278 175.279 1.50029 175.327 1.58684C175.423 1.76063 175.573 1.94934 175.753 2.14562L175.753 2.14563L175.755 2.14785C177.99 4.56345 180.018 7.07884 181.839 9.69397L181.839 9.69428C183.924 12.6831 186.765 15.1687 189.536 17.593C190.352 18.3067 191.162 19.0151 191.944 19.7295Z" stroke="#657ED4" stroke-opacity="0.37"/>
<path d="M196.298 23.8882C195.29 20.0482 193.786 12.2242 191.21 9.64824C189.055 7.48291 189.327 7.12023 192.026 8.56023C202.25 14.0162 200.234 24.2242 200.522 34.0002C200.543 34.8642 200.261 34.9762 199.674 34.3362C196.261 30.5709 192.57 27.0936 188.602 23.9042C185.53 21.4402 183.365 18.0269 182.106 13.6642C181.818 12.6616 182.026 12.5496 182.73 13.3282C186.602 17.6002 191.37 20.5122 195.578 24.3362C196.314 25.0082 196.554 24.8589 196.298 23.8882Z" fill="#657ED4"/>
<path d="M195.258 21.7737C195.44 22.5228 195.608 23.219 195.767 23.8329C194.13 22.3581 192.41 21.0136 190.709 19.6835C190.25 19.3247 189.792 18.9669 189.338 18.6079C187.14 16.8714 185.007 15.0964 183.1 12.9925C182.918 12.7903 182.746 12.6213 182.59 12.5076C182.514 12.4517 182.416 12.3907 182.305 12.3536C182.196 12.3172 182.004 12.2827 181.809 12.388C181.611 12.4944 181.535 12.6757 181.506 12.7902C181.477 12.9054 181.477 13.0209 181.484 13.115C181.498 13.3069 181.55 13.5416 181.625 13.8023L181.625 13.8028C182.908 18.2487 185.125 21.7559 188.289 24.2939C192.236 27.4669 195.908 30.9262 199.303 34.672L199.305 34.6741C199.465 34.848 199.63 35.0007 199.797 35.1026C199.951 35.1959 200.219 35.3126 200.51 35.1971C200.803 35.0809 200.917 34.8109 200.964 34.6366C201.015 34.447 201.028 34.2229 201.022 33.9879L201.022 33.9855C200.976 32.4422 200.988 30.8994 201.001 29.3554C201.008 28.4594 201.015 27.563 201.011 26.6659C200.999 24.2412 200.905 21.8429 200.492 19.5708C199.66 14.9961 197.534 10.9329 192.261 8.11911L192.261 8.1191C191.581 7.75622 191.033 7.49529 190.627 7.34818C190.428 7.27595 190.235 7.22037 190.063 7.20322C189.937 7.19056 189.606 7.17502 189.398 7.45223C189.189 7.73088 189.299 8.04527 189.347 8.16299C189.413 8.32218 189.522 8.49135 189.648 8.66088C189.905 9.00627 190.312 9.45525 190.855 10.0009L190.856 10.0018C191.437 10.5823 191.984 11.4897 192.494 12.6248C193 13.7526 193.454 15.0689 193.863 16.4374C194.409 18.2648 194.864 20.1444 195.258 21.7737Z" stroke="#657ED4" stroke-opacity="0.37"/>
<path d="M75.4016 26.3842C76.2336 25.0882 76.9696 23.5042 78.2976 22.6402C82.095 20.1869 85.4496 17.4509 88.3616 14.4322C88.991 13.7816 89.2043 13.8989 89.0016 14.7842C87.4656 21.3282 81.5296 26.5122 76.3136 30.5602C74.5963 31.8936 73.199 33.5362 72.1216 35.4882C71.6843 36.2669 71.455 36.2082 71.4336 35.3122C71.3163 31.6856 71.215 28.0376 71.1296 24.3682C70.9696 17.8722 74.3936 10.6882 80.8416 8.46423C81.7056 8.16556 81.855 8.37888 81.2896 9.10422C77.2096 14.2722 76.4896 19.9202 74.9056 26.1762C74.639 27.2215 74.8043 27.2909 75.4016 26.3842Z" fill="#657ED4"/>
<path d="M80.6786 7.99155C73.9591 10.3092 70.4665 17.7451 70.6298 24.3802C70.7151 28.0502 70.8165 31.6989 70.9338 35.3263C70.9395 35.5623 70.959 35.779 71.005 35.9542C71.028 36.0416 71.0644 36.1461 71.1284 36.2429C71.1943 36.3424 71.3115 36.465 71.4977 36.5126C71.6846 36.5604 71.847 36.5088 71.9534 36.4517C72.0564 36.3966 72.1382 36.3212 72.1995 36.2549C72.3229 36.1217 72.4419 35.9389 72.5576 35.7331L72.5594 35.7298C73.6047 33.8358 74.9579 32.2458 76.6202 30.9552C79.234 28.9267 82.0518 26.5959 84.4114 23.9403C86.7706 21.2852 88.6946 18.2804 89.4884 14.8985L89.489 14.8958C89.5426 14.6617 89.5776 14.4432 89.5756 14.2589C89.5746 14.1671 89.5645 14.0559 89.5256 13.9456C89.4854 13.8319 89.4014 13.6859 89.2346 13.5941C89.0672 13.5021 88.8982 13.5096 88.7796 13.5375C88.665 13.5645 88.5657 13.6167 88.4882 13.6657C88.3326 13.7642 88.1687 13.9125 88.0022 14.0846L88.0018 14.0851C85.1184 17.0741 81.7939 19.7861 78.0263 22.2202L78.025 22.2211C77.2809 22.7052 76.7206 23.379 76.2505 24.0686C76.0725 24.3297 75.9047 24.5973 75.7439 24.8613C75.888 24.2607 76.0266 23.6676 76.1635 23.0816C77.3323 18.0792 78.3796 13.5972 81.6821 9.41404L81.684 9.41159C81.834 9.21911 81.9601 9.03188 82.0368 8.85881C82.0943 8.72893 82.2158 8.40572 82.0113 8.11349C81.8042 7.81768 81.4556 7.82604 81.3137 7.83799C81.1253 7.85386 80.9079 7.91231 80.6786 7.99155ZM80.6786 7.99155L80.8416 8.46423L80.6783 7.99166C80.6784 7.99163 80.6785 7.99159 80.6786 7.99155Z" stroke="#657ED4" stroke-opacity="0.37"/>
<mask id="path-9-outside-1_24_2" maskUnits="userSpaceOnUse" x="100.583" y="9.75592" width="72" height="78" fill="black">
<rect fill="white" x="100.583" y="9.75592" width="72" height="78"/>
<path d="M135.193 22.6082C135.129 21.0082 134.415 19.6909 133.049 18.6562C132.025 17.8776 131.753 16.8856 132.233 15.6802C132.852 14.1229 133.956 12.6189 135.545 11.1683C136.175 10.6029 136.793 10.6189 137.401 11.2162C140.537 14.3362 142.697 17.5043 137.945 20.8162C137.135 21.3709 137.044 22.0269 137.673 22.7842L137.977 23.1362C138.093 23.275 138.258 23.3628 138.438 23.3807C138.617 23.3987 138.797 23.3453 138.937 23.2322C147.337 16.3682 152.617 27.5042 160.457 27.0082C161.193 26.9549 161.556 26.5603 161.545 25.8243L161.529 23.5362C161.529 23.396 161.562 23.2576 161.624 23.1319C161.686 23.0062 161.776 22.8965 161.888 22.8114C161.999 22.7262 162.129 22.6679 162.266 22.641C162.404 22.6141 162.546 22.6193 162.681 22.6562L163.257 22.8163C163.59 22.9057 163.888 23.0945 164.111 23.3574C164.334 23.6204 164.472 23.9451 164.505 24.2882C164.815 27.4989 163.369 29.6589 160.169 30.7683C159.369 31.0456 159.14 31.5736 159.481 32.3522L170.617 57.3122C170.841 57.8242 170.836 58.3416 170.601 58.8642C168.361 63.7442 166.073 68.0162 160.121 68.9122C152.516 70.0536 147.001 66.7362 143.577 58.9602C143.343 58.4056 143.369 57.8669 143.657 57.3443C147.839 49.7709 151.455 41.1362 154.505 31.4402C154.708 30.8002 154.569 30.2456 154.089 29.7762C148.505 24.3042 142.169 26.5282 139.673 33.2162C139.481 33.7176 139.561 34.1763 139.913 34.5923C141.257 36.2136 141.268 37.8936 139.945 39.6322C139.593 40.0909 139.492 40.5976 139.641 41.1522C140.025 42.6242 140.457 43.5042 140.233 45.1362C139.348 51.5896 139.487 56.8962 140.649 61.0562C141.897 65.5362 145.545 68.1282 143.833 73.3282C143.746 73.5946 143.733 73.8795 143.795 74.1528C143.857 74.426 143.992 74.6774 144.185 74.8802L150.601 81.4402C150.697 81.5375 150.767 81.6566 150.806 81.7875C150.845 81.9184 150.852 82.0573 150.825 82.1923C150.798 82.3274 150.739 82.4546 150.653 82.5632C150.567 82.6718 150.456 82.7586 150.329 82.8162C141.156 87.0082 131.812 86.9176 122.297 82.5443C121.775 82.2989 121.716 81.9736 122.121 81.5682L128.617 74.9922C128.828 74.7764 128.979 74.5115 129.058 74.2229C129.136 73.9343 129.139 73.6317 129.065 73.3443L128.457 70.9602C128.329 70.4269 128.377 69.9149 128.601 69.4243C131.801 62.4323 134.201 57.0562 133.017 49.0882C132.601 46.3042 132.671 43.5736 133.225 40.8963C133.266 40.6892 133.263 40.4756 133.216 40.269C133.169 40.0624 133.08 39.8674 132.953 39.6963C131.631 37.8616 131.625 36.0802 132.937 34.3522C133.289 33.8936 133.353 33.3976 133.129 32.8642C130.089 25.7762 123.801 24.5602 118.441 30.3522C118.1 30.7256 118.036 31.1416 118.249 31.6003C118.825 32.8376 119.321 34.1229 119.737 35.4562C122.308 43.7336 125.519 51.1522 129.369 57.7122C129.657 58.1922 129.652 58.6669 129.353 59.1362C127.359 62.3789 125.956 64.3629 125.145 65.0882C120.601 69.2376 115.625 70.2989 110.217 68.2723C105.721 66.5763 104.329 62.4003 101.881 58.7683C101.519 58.2349 101.487 57.6909 101.785 57.1362C105.999 49.1576 109.769 40.9976 113.097 32.6562C113.449 31.7709 113.193 31.1309 112.329 30.7362C109.769 29.5682 106.873 26.0323 108.937 23.2163C109.107 22.9874 109.344 22.8169 109.615 22.7284C109.885 22.6398 110.177 22.6375 110.449 22.7218C110.722 22.8061 110.961 22.9728 111.134 23.199C111.308 23.4251 111.407 23.6995 111.417 23.9842L111.449 24.8802C111.459 25.2699 111.566 25.6509 111.761 25.9886C111.956 26.3262 112.232 26.6098 112.565 26.8134C112.897 27.017 113.275 27.1341 113.664 27.1542C114.054 27.1743 114.442 27.0966 114.793 26.9282L127.065 21.0882C127.296 20.9832 127.543 20.9338 127.785 20.9443C130.111 21.1149 132.233 21.8616 134.153 23.1842C134.889 23.6962 135.236 23.5042 135.193 22.6082ZM146.729 56.9602C146.698 57.0406 146.687 57.1274 146.697 57.2131C146.707 57.2988 146.737 57.3808 146.786 57.4518C146.835 57.5228 146.901 57.5808 146.977 57.6206C147.054 57.6605 147.139 57.6809 147.225 57.6802L167.849 57.1842C167.938 57.1846 168.026 57.1624 168.104 57.1197C168.182 57.0771 168.248 57.0154 168.296 56.9403C168.344 56.8653 168.372 56.7794 168.378 56.6905C168.384 56.6017 168.367 56.5129 168.329 56.4322L157.401 31.7443C157.358 31.6489 157.288 31.5684 157.199 31.513C157.11 31.4577 157.007 31.43 156.903 31.4334C156.798 31.4368 156.697 31.4712 156.612 31.5323C156.527 31.5933 156.462 31.6782 156.425 31.7762L146.729 56.9602ZM112.969 37.4403C110.217 44.0002 107.348 50.2936 104.361 56.3203C104.321 56.4026 104.302 56.4938 104.306 56.5854C104.31 56.6771 104.338 56.7661 104.386 56.8444C104.433 56.9226 104.5 56.9874 104.58 57.0329C104.66 57.0783 104.75 57.1029 104.841 57.1042L125.945 57.6322C126.575 57.6429 126.756 57.3602 126.489 56.7842C122.927 49.1576 119.823 41.1682 117.177 32.8162C117.039 32.3789 116.804 32.0002 116.473 31.6802C116.111 31.3496 115.705 31.2536 115.257 31.3923C114.809 31.5416 114.543 31.8456 114.457 32.3042C114.137 34.1069 113.641 35.8189 112.969 37.4403Z"/>
</mask>
<path d="M135.193 22.6082C135.129 21.0082 134.415 19.6909 133.049 18.6562C132.025 17.8776 131.753 16.8856 132.233 15.6802C132.852 14.1229 133.956 12.6189 135.545 11.1683C136.175 10.6029 136.793 10.6189 137.401 11.2162C140.537 14.3362 142.697 17.5043 137.945 20.8162C137.135 21.3709 137.044 22.0269 137.673 22.7842L137.977 23.1362C138.093 23.275 138.258 23.3628 138.438 23.3807C138.617 23.3987 138.797 23.3453 138.937 23.2322C147.337 16.3682 152.617 27.5042 160.457 27.0082C161.193 26.9549 161.556 26.5603 161.545 25.8243L161.529 23.5362C161.529 23.396 161.562 23.2576 161.624 23.1319C161.686 23.0062 161.776 22.8965 161.888 22.8114C161.999 22.7262 162.129 22.6679 162.266 22.641C162.404 22.6141 162.546 22.6193 162.681 22.6562L163.257 22.8163C163.59 22.9057 163.888 23.0945 164.111 23.3574C164.334 23.6204 164.472 23.9451 164.505 24.2882C164.815 27.4989 163.369 29.6589 160.169 30.7683C159.369 31.0456 159.14 31.5736 159.481 32.3522L170.617 57.3122C170.841 57.8242 170.836 58.3416 170.601 58.8642C168.361 63.7442 166.073 68.0162 160.121 68.9122C152.516 70.0536 147.001 66.7362 143.577 58.9602C143.343 58.4056 143.369 57.8669 143.657 57.3443C147.839 49.7709 151.455 41.1362 154.505 31.4402C154.708 30.8002 154.569 30.2456 154.089 29.7762C148.505 24.3042 142.169 26.5282 139.673 33.2162C139.481 33.7176 139.561 34.1763 139.913 34.5923C141.257 36.2136 141.268 37.8936 139.945 39.6322C139.593 40.0909 139.492 40.5976 139.641 41.1522C140.025 42.6242 140.457 43.5042 140.233 45.1362C139.348 51.5896 139.487 56.8962 140.649 61.0562C141.897 65.5362 145.545 68.1282 143.833 73.3282C143.746 73.5946 143.733 73.8795 143.795 74.1528C143.857 74.426 143.992 74.6774 144.185 74.8802L150.601 81.4402C150.697 81.5375 150.767 81.6566 150.806 81.7875C150.845 81.9184 150.852 82.0573 150.825 82.1923C150.798 82.3274 150.739 82.4546 150.653 82.5632C150.567 82.6718 150.456 82.7586 150.329 82.8162C141.156 87.0082 131.812 86.9176 122.297 82.5443C121.775 82.2989 121.716 81.9736 122.121 81.5682L128.617 74.9922C128.828 74.7764 128.979 74.5115 129.058 74.2229C129.136 73.9343 129.139 73.6317 129.065 73.3443L128.457 70.9602C128.329 70.4269 128.377 69.9149 128.601 69.4243C131.801 62.4323 134.201 57.0562 133.017 49.0882C132.601 46.3042 132.671 43.5736 133.225 40.8963C133.266 40.6892 133.263 40.4756 133.216 40.269C133.169 40.0624 133.08 39.8674 132.953 39.6963C131.631 37.8616 131.625 36.0802 132.937 34.3522C133.289 33.8936 133.353 33.3976 133.129 32.8642C130.089 25.7762 123.801 24.5602 118.441 30.3522C118.1 30.7256 118.036 31.1416 118.249 31.6003C118.825 32.8376 119.321 34.1229 119.737 35.4562C122.308 43.7336 125.519 51.1522 129.369 57.7122C129.657 58.1922 129.652 58.6669 129.353 59.1362C127.359 62.3789 125.956 64.3629 125.145 65.0882C120.601 69.2376 115.625 70.2989 110.217 68.2723C105.721 66.5763 104.329 62.4003 101.881 58.7683C101.519 58.2349 101.487 57.6909 101.785 57.1362C105.999 49.1576 109.769 40.9976 113.097 32.6562C113.449 31.7709 113.193 31.1309 112.329 30.7362C109.769 29.5682 106.873 26.0323 108.937 23.2163C109.107 22.9874 109.344 22.8169 109.615 22.7284C109.885 22.6398 110.177 22.6375 110.449 22.7218C110.722 22.8061 110.961 22.9728 111.134 23.199C111.308 23.4251 111.407 23.6995 111.417 23.9842L111.449 24.8802C111.459 25.2699 111.566 25.6509 111.761 25.9886C111.956 26.3262 112.232 26.6098 112.565 26.8134C112.897 27.017 113.275 27.1341 113.664 27.1542C114.054 27.1743 114.442 27.0966 114.793 26.9282L127.065 21.0882C127.296 20.9832 127.543 20.9338 127.785 20.9443C130.111 21.1149 132.233 21.8616 134.153 23.1842C134.889 23.6962 135.236 23.5042 135.193 22.6082ZM146.729 56.9602C146.698 57.0406 146.687 57.1274 146.697 57.2131C146.707 57.2988 146.737 57.3808 146.786 57.4518C146.835 57.5228 146.901 57.5808 146.977 57.6206C147.054 57.6605 147.139 57.6809 147.225 57.6802L167.849 57.1842C167.938 57.1846 168.026 57.1624 168.104 57.1197C168.182 57.0771 168.248 57.0154 168.296 56.9403C168.344 56.8653 168.372 56.7794 168.378 56.6905C168.384 56.6017 168.367 56.5129 168.329 56.4322L157.401 31.7443C157.358 31.6489 157.288 31.5684 157.199 31.513C157.11 31.4577 157.007 31.43 156.903 31.4334C156.798 31.4368 156.697 31.4712 156.612 31.5323C156.527 31.5933 156.462 31.6782 156.425 31.7762L146.729 56.9602ZM112.969 37.4403C110.217 44.0002 107.348 50.2936 104.361 56.3203C104.321 56.4026 104.302 56.4938 104.306 56.5854C104.31 56.6771 104.338 56.7661 104.386 56.8444C104.433 56.9226 104.5 56.9874 104.58 57.0329C104.66 57.0783 104.75 57.1029 104.841 57.1042L125.945 57.6322C126.575 57.6429 126.756 57.3602 126.489 56.7842C122.927 49.1576 119.823 41.1682 117.177 32.8162C117.039 32.3789 116.804 32.0002 116.473 31.6802C116.111 31.3496 115.705 31.2536 115.257 31.3923C114.809 31.5416 114.543 31.8456 114.457 32.3042C114.137 34.1069 113.641 35.8189 112.969 37.4403Z" fill="#657ED4"/>
<path d="M135.193 22.6082C135.129 21.0082 134.415 19.6909 133.049 18.6562C132.025 17.8776 131.753 16.8856 132.233 15.6802C132.852 14.1229 133.956 12.6189 135.545 11.1683C136.175 10.6029 136.793 10.6189 137.401 11.2162C140.537 14.3362 142.697 17.5043 137.945 20.8162C137.135 21.3709 137.044 22.0269 137.673 22.7842L137.977 23.1362C138.093 23.275 138.258 23.3628 138.438 23.3807C138.617 23.3987 138.797 23.3453 138.937 23.2322C147.337 16.3682 152.617 27.5042 160.457 27.0082C161.193 26.9549 161.556 26.5603 161.545 25.8243L161.529 23.5362C161.529 23.396 161.562 23.2576 161.624 23.1319C161.686 23.0062 161.776 22.8965 161.888 22.8114C161.999 22.7262 162.129 22.6679 162.266 22.641C162.404 22.6141 162.546 22.6193 162.681 22.6562L163.257 22.8163C163.59 22.9057 163.888 23.0945 164.111 23.3574C164.334 23.6204 164.472 23.9451 164.505 24.2882C164.815 27.4989 163.369 29.6589 160.169 30.7683C159.369 31.0456 159.14 31.5736 159.481 32.3522L170.617 57.3122C170.841 57.8242 170.836 58.3416 170.601 58.8642C168.361 63.7442 166.073 68.0162 160.121 68.9122C152.516 70.0536 147.001 66.7362 143.577 58.9602C143.343 58.4056 143.369 57.8669 143.657 57.3443C147.839 49.7709 151.455 41.1362 154.505 31.4402C154.708 30.8002 154.569 30.2456 154.089 29.7762C148.505 24.3042 142.169 26.5282 139.673 33.2162C139.481 33.7176 139.561 34.1763 139.913 34.5923C141.257 36.2136 141.268 37.8936 139.945 39.6322C139.593 40.0909 139.492 40.5976 139.641 41.1522C140.025 42.6242 140.457 43.5042 140.233 45.1362C139.348 51.5896 139.487 56.8962 140.649 61.0562C141.897 65.5362 145.545 68.1282 143.833 73.3282C143.746 73.5946 143.733 73.8795 143.795 74.1528C143.857 74.426 143.992 74.6774 144.185 74.8802L150.601 81.4402C150.697 81.5375 150.767 81.6566 150.806 81.7875C150.845 81.9184 150.852 82.0573 150.825 82.1923C150.798 82.3274 150.739 82.4546 150.653 82.5632C150.567 82.6718 150.456 82.7586 150.329 82.8162C141.156 87.0082 131.812 86.9176 122.297 82.5443C121.775 82.2989 121.716 81.9736 122.121 81.5682L128.617 74.9922C128.828 74.7764 128.979 74.5115 129.058 74.2229C129.136 73.9343 129.139 73.6317 129.065 73.3443L128.457 70.9602C128.329 70.4269 128.377 69.9149 128.601 69.4243C131.801 62.4323 134.201 57.0562 133.017 49.0882C132.601 46.3042 132.671 43.5736 133.225 40.8963C133.266 40.6892 133.263 40.4756 133.216 40.269C133.169 40.0624 133.08 39.8674 132.953 39.6963C131.631 37.8616 131.625 36.0802 132.937 34.3522C133.289 33.8936 133.353 33.3976 133.129 32.8642C130.089 25.7762 123.801 24.5602 118.441 30.3522C118.1 30.7256 118.036 31.1416 118.249 31.6003C118.825 32.8376 119.321 34.1229 119.737 35.4562C122.308 43.7336 125.519 51.1522 129.369 57.7122C129.657 58.1922 129.652 58.6669 129.353 59.1362C127.359 62.3789 125.956 64.3629 125.145 65.0882C120.601 69.2376 115.625 70.2989 110.217 68.2723C105.721 66.5763 104.329 62.4003 101.881 58.7683C101.519 58.2349 101.487 57.6909 101.785 57.1362C105.999 49.1576 109.769 40.9976 113.097 32.6562C113.449 31.7709 113.193 31.1309 112.329 30.7362C109.769 29.5682 106.873 26.0323 108.937 23.2163C109.107 22.9874 109.344 22.8169 109.615 22.7284C109.885 22.6398 110.177 22.6375 110.449 22.7218C110.722 22.8061 110.961 22.9728 111.134 23.199C111.308 23.4251 111.407 23.6995 111.417 23.9842L111.449 24.8802C111.459 25.2699 111.566 25.6509 111.761 25.9886C111.956 26.3262 112.232 26.6098 112.565 26.8134C112.897 27.017 113.275 27.1341 113.664 27.1542C114.054 27.1743 114.442 27.0966 114.793 26.9282L127.065 21.0882C127.296 20.9832 127.543 20.9338 127.785 20.9443C130.111 21.1149 132.233 21.8616 134.153 23.1842C134.889 23.6962 135.236 23.5042 135.193 22.6082ZM146.729 56.9602C146.698 57.0406 146.687 57.1274 146.697 57.2131C146.707 57.2988 146.737 57.3808 146.786 57.4518C146.835 57.5228 146.901 57.5808 146.977 57.6206C147.054 57.6605 147.139 57.6809 147.225 57.6802L167.849 57.1842C167.938 57.1846 168.026 57.1624 168.104 57.1197C168.182 57.0771 168.248 57.0154 168.296 56.9403C168.344 56.8653 168.372 56.7794 168.378 56.6905C168.384 56.6017 168.367 56.5129 168.329 56.4322L157.401 31.7443C157.358 31.6489 157.288 31.5684 157.199 31.513C157.11 31.4577 157.007 31.43 156.903 31.4334C156.798 31.4368 156.697 31.4712 156.612 31.5323C156.527 31.5933 156.462 31.6782 156.425 31.7762L146.729 56.9602ZM112.969 37.4403C110.217 44.0002 107.348 50.2936 104.361 56.3203C104.321 56.4026 104.302 56.4938 104.306 56.5854C104.31 56.6771 104.338 56.7661 104.386 56.8444C104.433 56.9226 104.5 56.9874 104.58 57.0329C104.66 57.0783 104.75 57.1029 104.841 57.1042L125.945 57.6322C126.575 57.6429 126.756 57.3602 126.489 56.7842C122.927 49.1576 119.823 41.1682 117.177 32.8162C117.039 32.3789 116.804 32.0002 116.473 31.6802C116.111 31.3496 115.705 31.2536 115.257 31.3923C114.809 31.5416 114.543 31.8456 114.457 32.3042C114.137 34.1069 113.641 35.8189 112.969 37.4403Z" stroke="#657ED4" stroke-opacity="0.37" stroke-width="2" mask="url(#path-9-outside-1_24_2)"/>
<path d="M201.977 40.4962C202.351 34.6615 202.473 28.3895 202.345 21.6802C202.335 21.0082 202.148 20.3895 201.785 19.8242C201.476 19.3442 201.3 18.8322 201.257 18.2882C201.193 17.4349 201.423 17.3495 201.945 18.0322C210.457 29.1682 207.401 40.1602 203.305 52.2722C203.028 53.0829 202.735 53.0882 202.425 52.2882C200.9 48.3842 198.495 44.3469 195.209 40.1762C192.393 36.6082 190.601 32.3202 189.097 28.0482C188.489 26.2882 188.825 26.0855 190.105 27.4402C194.201 31.7442 199.193 34.7682 201.321 40.5922C201.695 41.6162 201.913 41.5842 201.977 40.4962Z" fill="#657ED4"/>
<path d="M201.524 39.7368C200.407 37.0624 198.697 34.9813 196.805 33.0923C195.902 32.1911 194.95 31.3274 194.002 30.4663C193.876 30.3515 193.749 30.2368 193.623 30.1221C192.546 29.1428 191.478 28.1576 190.468 27.0961C190.142 26.7509 189.855 26.4816 189.613 26.3091C189.493 26.2241 189.36 26.1438 189.219 26.0979C189.083 26.0536 188.855 26.0152 188.635 26.1481C188.415 26.2812 188.342 26.5008 188.319 26.6419C188.294 26.7882 188.303 26.944 188.323 27.0889C188.364 27.3832 188.47 27.7625 188.625 28.2115L188.625 28.2115L188.626 28.2143C190.134 32.4975 191.948 36.8502 194.817 40.4856C198.079 44.6271 200.456 48.6218 201.959 52.4694C202.043 52.6861 202.139 52.8856 202.256 53.0393C202.361 53.178 202.569 53.3899 202.886 53.3841C203.205 53.3783 203.404 53.1586 203.504 53.0158C203.615 52.8575 203.703 52.6541 203.778 52.4341L203.779 52.4324C207.871 40.3324 211.03 29.0938 202.343 17.7286L202.342 17.7282C202.203 17.5463 202.061 17.3854 201.919 17.2727C201.814 17.1888 201.537 16.9928 201.207 17.1156C200.874 17.2396 200.795 17.5722 200.772 17.7055C200.741 17.884 200.742 18.0981 200.759 18.3256L200.759 18.3273C200.808 18.9575 201.013 19.5485 201.365 20.0945C201.677 20.5814 201.836 21.1092 201.845 21.6881L201.846 21.6897C201.968 28.109 201.861 34.1246 201.524 39.7368Z" stroke="#657ED4" stroke-opacity="0.37"/>
<path d="M70.4895 42.5442C72.5215 35.9522 76.5215 33.2002 80.9535 28.8802C82.3082 27.5682 82.7295 27.8189 82.2175 29.6322C81.1935 33.3282 79.5455 37.2162 77.1455 40.2242C73.8495 44.3202 71.3909 48.5656 69.7695 52.9602C69.5029 53.6856 69.2469 53.6856 69.0015 52.9602C64.9375 41.0082 60.9375 31.1522 69.2895 19.4722C69.4389 19.2696 69.6362 19.1469 69.8815 19.1042C70.0095 19.0722 70.1429 19.1042 70.2815 19.2002C70.3455 19.2429 70.3615 19.3016 70.3295 19.3762C69.2735 21.4456 68.8149 23.3762 68.9535 25.1682C69.4122 31.0029 69.7589 36.7736 69.9935 42.4802C70.0255 43.4936 70.1909 43.5149 70.4895 42.5442Z" fill="#657ED4"/>
<path d="M82.6991 29.7668C81.6644 33.5008 79.9926 37.4576 77.5364 40.5361L77.5351 40.5377C74.269 44.5965 71.8393 48.7949 70.2388 53.1328C70.1661 53.3306 70.0815 53.5157 69.9772 53.6605C69.8864 53.7866 69.6915 54.0042 69.3775 54.0042C69.0593 54.0042 68.8655 53.7817 68.7762 53.6525C68.6746 53.5055 68.5949 53.3186 68.5279 53.1205C68.3326 52.5461 68.1371 51.9757 67.9429 51.4089C66.1253 46.106 64.4164 41.12 63.9914 36.1569C63.5176 30.625 64.635 25.1219 68.8828 19.1814L68.887 19.1756L68.887 19.1756C69.1086 18.875 69.4131 18.6823 69.7797 18.6145C70.0753 18.5473 70.3467 18.6381 70.5632 18.7871C70.6669 18.8574 70.7771 18.9729 70.8239 19.1447C70.8703 19.3146 70.8346 19.4669 70.7891 19.5732L70.7825 19.5886L70.7749 19.6035C69.7489 21.6141 69.3224 23.4523 69.452 25.1291C69.8759 30.522 70.2043 35.8605 70.4371 41.1445L82.6991 29.7668ZM82.6991 29.7668C82.6989 29.7673 82.6988 29.7677 82.6987 29.7681L82.2176 29.6322L82.6994 29.7657C82.6993 29.7661 82.6992 29.7665 82.6991 29.7668Z" stroke="#657ED4" stroke-opacity="0.37"/>
<path d="M202.617 60.8002C203.481 59.1042 203.449 56.8322 204.281 55.0722C206.735 49.8882 208.34 44.6029 209.097 39.2162C209.407 37.0722 209.801 37.0562 210.281 39.1682C212.265 47.7762 211.001 57.6962 205.257 64.7042C203.295 67.0935 201.412 69.5949 199.609 72.2082C199.012 73.0722 198.729 72.9762 198.761 71.9202C198.841 69.2482 199.001 65.7922 198.153 63.3282C195.572 55.6802 193.983 48.5442 193.385 41.9202C193.279 40.8002 193.513 40.7256 194.089 41.6962C197.369 47.2002 202.377 54.1122 202.073 60.6562C202.031 61.5415 202.212 61.5896 202.617 60.8002Z" fill="#657ED4"/>
<path d="M199.609 72.2082C199.012 73.0722 198.729 72.9762 198.761 71.9202C198.766 71.7761 198.77 71.6298 198.775 71.4815C198.856 68.8784 198.956 65.6594 198.153 63.3282C195.572 55.6802 193.983 48.5442 193.385 41.9202L199.609 72.2082ZM199.609 72.2082C201.412 69.5949 203.295 67.0935 205.257 64.7042M199.609 72.2082L205.257 64.7042M192.887 41.9664C193.489 48.6364 195.088 55.8109 197.68 63.4881L197.681 63.4909C198.081 64.6541 198.25 66.0767 198.306 67.5648C198.355 68.8902 198.313 70.2368 198.275 71.4661C198.27 71.6142 198.266 71.7606 198.262 71.9051C198.262 71.9051 198.262 71.9052 198.262 71.9052L192.887 41.9664ZM192.887 41.9664C192.86 41.677 192.851 41.4228 192.872 41.223C192.883 41.1249 192.904 41.0082 192.952 40.8982C193 40.7905 193.109 40.6181 193.33 40.5478C193.55 40.4778 193.737 40.5548 193.837 40.6133C193.941 40.6736 194.026 40.7555 194.092 40.8288C194.227 40.9782 194.37 41.1896 194.519 41.4407C194.984 42.2207 195.488 43.0355 196.009 43.8778C197.305 45.9739 198.706 48.2401 199.872 50.5618C201.327 53.4583 202.453 56.5098 202.575 59.539C202.732 59.0177 202.85 58.4542 202.971 57.8603C202.978 57.8296 202.984 57.7987 202.99 57.7678C203.186 56.8088 203.396 55.7742 203.829 54.8585L203.829 54.8583C206.262 49.7175 207.852 44.4806 208.602 39.1466L208.602 39.1448C208.681 38.601 208.768 38.1639 208.87 37.8523C208.92 37.6995 208.983 37.5461 209.068 37.4205C209.144 37.309 209.315 37.1084 209.605 37.0966C209.895 37.0849 210.082 37.2711 210.167 37.3762C210.262 37.4945 210.337 37.6424 210.399 37.7907C210.525 38.093 210.647 38.5215 210.769 39.057L192.887 41.9664ZM205.257 64.7042C211.001 57.6962 212.265 47.7762 210.281 39.1682L205.257 64.7042Z" stroke="#657ED4" stroke-opacity="0.37"/>
<path d="M14.05 41.2346L14.177 62.7809C14.177 63.331 14.3956 63.8586 14.7846 64.2475C15.1735 64.6365 15.7011 64.8551 16.2512 64.8551L20.5266 64.8339C22.1221 64.8257 23.7004 64.4995 25.1712 63.8738C26.642 63.2482 27.9767 62.3354 29.0989 61.1876C30.2212 60.0398 31.1091 58.6795 31.7118 57.1843C32.3146 55.6891 32.6205 54.0883 32.612 52.4734V51.3728C32.595 48.1115 31.2988 44.9905 29.0086 42.6963C26.7183 40.402 23.6216 39.1225 20.3996 39.1392L16.1243 39.1604C15.5741 39.1604 15.0466 39.3789 14.6576 39.7679C14.2686 40.1569 14.05 40.6845 14.05 41.2346Z" stroke="#889993" stroke-width="2"/>
<path d="M15.6167 67.0986L20.1461 67.1833C21.0068 67.1974 21.6488 67.5854 22.0721 68.3474C25.2257 74.0409 28.4217 80.7503 32.2103 85.6395C36.2176 90.832 42.0028 92.6029 49.5659 90.952C51.4566 90.5428 51.4778 90.056 49.6294 89.4916C40.3801 86.6342 33.2897 74.9933 28.9297 66.9081C28.4499 66.0192 28.6686 65.3842 29.5858 65.0033C44.4015 58.8653 43.3433 38.5889 26.665 37.3401C21.035 36.9168 12.7594 36.8886 1.83805 37.2555C1.47118 37.2555 1.22425 37.4319 1.09726 37.7846C1.0126 38.0527 1.06904 38.2997 1.26658 38.5254C1.52056 38.8076 1.82393 39.0193 2.17669 39.1604C5.47848 40.388 7.15055 42.9278 7.19288 46.7799C7.34809 59.6908 7.27754 71.748 6.98122 82.9515C6.89656 86.2109 4.97758 88.4191 1.22426 89.5762C1.19604 89.5762 1.18192 89.5903 1.18192 89.6185C1.09726 89.8161 1.04082 90.0207 1.0126 90.2324C0.942047 90.7403 1.16781 90.9943 1.68989 90.9943L19.9767 90.9731C20.1461 90.9731 20.266 90.8955 20.3365 90.7403C20.4353 90.571 20.4635 90.3946 20.4212 90.2112C20.266 89.5762 19.8709 89.1741 19.236 89.0047C15.92 88.0735 14.2409 85.6183 14.1986 81.6392C14.1422 76.8981 14.121 72.5311 14.1351 68.5379C14.1492 67.5643 14.6431 67.0845 15.6167 67.0986Z" stroke="#889993" stroke-width="2"/>
<path d="M14.1351 68.5379C14.121 72.5311 14.1422 76.8981 14.1986 81.6392C14.2409 85.6183 15.92 88.0735 19.236 89.0047C19.8709 89.1741 20.266 89.5762 20.4212 90.2112C20.4635 90.3946 20.4353 90.571 20.3365 90.7403C20.266 90.8955 20.1461 90.9731 19.9767 90.9731L1.68989 90.9943C1.16781 90.9943 0.942047 90.7403 1.0126 90.2324C1.04082 90.0207 1.09726 89.8161 1.18192 89.6185C1.18192 89.5903 1.19604 89.5762 1.22426 89.5762C4.97758 88.4191 6.89656 86.2109 6.98122 82.9515C7.27754 71.748 7.34809 59.6908 7.19288 46.7799C7.15055 42.9278 5.47848 40.388 2.17669 39.1604C1.82393 39.0193 1.52056 38.8076 1.26658 38.5254C1.06904 38.2997 1.0126 38.0527 1.09726 37.7846C1.22425 37.4319 1.47118 37.2555 1.83805 37.2555C12.7594 36.8886 21.035 36.9168 26.665 37.3401C43.3433 38.5889 44.4015 58.8653 29.5858 65.0033C28.6686 65.3842 28.4499 66.0192 28.9297 66.9081C33.2897 74.9933 40.3801 86.6342 49.6294 89.4916C51.4778 90.056 51.4566 90.5428 49.5659 90.952C42.0028 92.6029 36.2176 90.832 32.2103 85.6395C28.4217 80.7503 25.2257 74.0409 22.0721 68.3474C21.6488 67.5854 21.0068 67.1974 20.1461 67.1833L15.6167 67.0986C14.6431 67.0845 14.1492 67.5643 14.1351 68.5379ZM14.0504 41.2346L14.1774 62.7809C14.1774 63.331 14.396 63.8586 14.785 64.2476C15.1739 64.6366 15.7015 64.8551 16.2516 64.8551L20.527 64.8339C22.1225 64.8257 23.7007 64.4995 25.1716 63.8738C26.6424 63.2482 27.9771 62.3354 29.0993 61.1876C30.2216 60.0398 31.1094 58.6795 31.7122 57.1843C32.315 55.6891 32.6209 54.0883 32.6124 52.4734V51.3728C32.5954 48.1115 31.2992 44.9905 29.009 42.6963C26.7187 40.402 23.622 39.1225 20.4 39.1392L16.1246 39.1604C15.5745 39.1604 15.047 39.3789 14.658 39.7679C14.269 40.1569 14.0504 40.6845 14.0504 41.2346Z" fill="#FFFAED"/>
<path d="M235.599 67.4551L248.098 67.6333C248.838 67.6333 249.353 67.9701 249.643 68.6436C251.426 72.7241 252.899 76.9764 254.061 81.4003C254.747 84.0283 254.1 85.9101 252.12 87.0458C249.003 88.8418 249.241 89.7397 252.833 89.7397C257.243 89.7529 261.661 89.7133 266.085 89.6209C268.831 89.568 268.977 88.9144 266.52 87.6598C264.315 86.5506 262.684 84.6093 261.628 81.8361C256.253 67.7456 251.01 53.8928 245.9 40.2777C245.715 39.7891 245.378 39.4457 244.889 39.2476C244.031 38.9175 243.153 38.9175 242.255 39.2476C242.025 39.3344 241.817 39.4698 241.646 39.6443C241.475 39.8188 241.345 40.0282 241.264 40.2578C236.682 53.0674 231.816 65.9298 226.666 78.845C224.962 83.1237 222.413 86.3459 219.019 88.5116C217.91 89.2247 218.016 89.5945 219.336 89.6209C224.619 89.7529 229.894 89.7595 235.163 89.6407C235.414 89.6275 235.593 89.502 235.698 89.2643C235.87 88.855 235.771 88.538 235.401 88.3135C235.072 88.116 234.726 87.9566 234.371 87.8381C227.715 85.778 231.954 73.8136 233.856 68.6436C233.984 68.2919 234.22 67.9885 234.532 67.7756C234.844 67.5626 235.217 67.4506 235.599 67.4551Z" stroke="#889993" stroke-width="2"/>
<path d="M235.144 64.662C235.113 64.7636 235.106 64.8711 235.124 64.9757C235.142 65.0804 235.185 65.1793 235.249 65.2643C235.313 65.3493 235.396 65.418 235.491 65.4648C235.586 65.5116 235.691 65.5352 235.798 65.5336L247.505 65.3553C247.612 65.3528 247.718 65.3245 247.812 65.2728C247.906 65.2212 247.987 65.1476 248.047 65.0584C248.107 64.9692 248.145 64.8668 248.158 64.76C248.17 64.6531 248.157 64.5448 248.119 64.4441L241.998 47.7257C241.949 47.5958 241.861 47.4842 241.746 47.4062C241.632 47.3281 241.496 47.2873 241.357 47.2895C241.218 47.2917 241.084 47.3366 240.971 47.4182C240.859 47.4999 240.775 47.6142 240.73 47.7455L235.144 64.662Z" stroke="#889993" stroke-width="2"/>
<path d="M233.856 68.6436C231.954 73.8136 227.715 85.778 234.371 87.8381C234.726 87.9566 235.072 88.116 235.401 88.3135C235.771 88.538 235.87 88.855 235.698 89.2643C235.593 89.502 235.414 89.6275 235.163 89.6407C229.894 89.7595 224.619 89.7529 219.336 89.6209C218.016 89.5945 217.91 89.2247 219.019 88.5116C222.413 86.3459 224.962 83.1237 226.666 78.845C231.816 65.9298 236.682 53.0674 241.264 40.2578C241.345 40.0282 241.475 39.8188 241.646 39.6443C241.817 39.4698 242.025 39.3344 242.255 39.2476C243.153 38.9175 244.031 38.9175 244.889 39.2476C245.378 39.4457 245.715 39.7891 245.9 40.2777C251.01 53.8928 256.253 67.7456 261.628 81.8361C262.684 84.6093 264.315 86.5506 266.52 87.6598C268.977 88.9144 268.831 89.568 266.085 89.6209C261.661 89.7133 257.243 89.7529 252.833 89.7397C249.241 89.7397 249.003 88.8418 252.12 87.0458C254.1 85.9101 254.747 84.0283 254.061 81.4003C252.899 76.9764 251.426 72.7241 249.643 68.6436C249.353 67.9701 248.838 67.6333 248.098 67.6333L235.599 67.4551C235.217 67.4506 234.844 67.5626 234.532 67.7756C234.22 67.9885 233.984 68.2919 233.856 68.6436ZM235.144 64.662C235.112 64.7636 235.106 64.8711 235.124 64.9758C235.142 65.0804 235.185 65.1793 235.248 65.2643C235.312 65.3493 235.395 65.418 235.491 65.4648C235.586 65.5116 235.691 65.5352 235.797 65.5336L247.504 65.3554C247.612 65.3528 247.717 65.3245 247.811 65.2728C247.906 65.2212 247.987 65.1477 248.047 65.0584C248.107 64.9692 248.145 64.8669 248.157 64.76C248.17 64.6531 248.156 64.5448 248.118 64.4442L241.997 47.7257C241.948 47.5958 241.861 47.4842 241.746 47.4062C241.631 47.3281 241.495 47.2874 241.357 47.2895C241.218 47.2917 241.083 47.3366 240.971 47.4183C240.859 47.4999 240.774 47.6142 240.73 47.7455L235.144 64.662Z" fill="#FFFAED"/>
<path d="M70.5055 63.1683C70.0362 60.2136 70.2602 57.5842 71.1775 55.2802C72.9375 50.8322 74.9589 46.6082 77.2415 42.6083C78.2335 40.8589 78.6549 40.9869 78.5055 42.9923C78.0149 49.6376 76.6708 56.2829 74.4735 62.9282C73.5295 65.7762 73.2735 69.4563 73.5615 72.4483C73.6362 73.2909 73.3642 73.4243 72.7455 72.8483C63.0922 63.8349 59.4602 53.1042 61.8495 40.6562C62.2335 38.6616 62.5588 38.6669 62.8255 40.6723C63.1455 42.9923 63.3375 45.2643 64.2335 47.3923C66.2389 52.1816 68.2122 57.4669 70.1535 63.2483C70.1641 63.2949 70.1928 63.3355 70.2334 63.361C70.2739 63.3865 70.3228 63.3949 70.3695 63.3842C70.4162 63.3736 70.4567 63.3449 70.4823 63.3044C70.5078 63.2639 70.5161 63.2149 70.5055 63.1683Z" fill="#657ED4"/>
<path d="M70.7128 55.0958C70.0468 56.7687 69.7355 58.5964 69.7698 60.5731C68.1022 55.7552 66.4106 51.2971 64.6947 47.1991L64.6943 47.1982C63.9559 45.4444 63.7139 43.593 63.4558 41.6181C63.4122 41.284 63.3681 40.9464 63.321 40.6051C63.2535 40.0977 63.1792 39.691 63.0942 39.402C63.0526 39.2611 62.9999 39.1172 62.9267 38.9982C62.8704 38.9066 62.7038 38.6695 62.3897 38.6643C62.08 38.6592 61.9047 38.8854 61.8447 38.9728C61.7659 39.0875 61.7052 39.228 61.6556 39.3673C61.5538 39.6527 61.4558 40.0564 61.3585 40.5617L61.3585 40.562C58.9351 53.1872 62.6317 64.089 72.4043 73.2137L72.4048 73.2142C72.5738 73.3715 72.7478 73.5084 72.922 73.595C73.0838 73.6754 73.356 73.7653 73.6336 73.6292C73.9109 73.4933 74.0068 73.2233 74.0426 73.0464C74.0812 72.8557 74.08 72.6342 74.0596 72.4041L74.0592 72.4004C73.7763 69.4606 74.0308 65.853 74.9481 63.0856L74.9482 63.0852C77.1578 56.403 78.5103 49.7175 79.0041 43.0294C79.0422 42.5181 79.0469 42.0942 79.0065 41.777C78.9865 41.6204 78.952 41.4585 78.8859 41.3169C78.821 41.1779 78.691 40.988 78.4469 40.9138C78.2027 40.8397 77.9891 40.9251 77.8579 41.0045C77.7242 41.0854 77.6054 41.2007 77.5016 41.3197C77.2916 41.5606 77.0598 41.9152 76.8071 42.3608C74.5124 46.3818 72.481 50.627 70.7128 55.0958ZM61.8495 40.6562C61.9381 40.1961 62.0236 39.8423 62.1059 39.595L72.7455 72.8483C63.0922 63.8349 59.4602 53.1042 61.8495 40.6562Z" stroke="#657ED4" stroke-opacity="0.37"/>
<path d="M195.785 80.3202C199.359 75.4242 203.375 70.6402 207.833 65.9682C209.295 64.4216 210.265 62.3309 210.745 59.6962C210.799 59.4082 210.964 59.2216 211.241 59.1362C211.295 59.1256 211.348 59.1256 211.401 59.1362C211.519 59.1789 211.577 59.2589 211.577 59.3762C211.913 75.7922 201.241 81.7602 189.097 89.9682C188.297 90.5122 188.057 90.3256 188.377 89.4083C190.223 84.1389 191.311 77.8562 191.641 70.5602C191.844 66.3469 192.66 62.3149 194.089 58.4642C194.559 57.2056 194.836 57.2429 194.921 58.5762C195.465 66.0802 198.041 72.3043 195.369 80.1123C195.028 81.1043 195.167 81.1735 195.785 80.3202Z" fill="#657ED4"/>
<path d="M211.401 59.1362C211.519 59.1789 211.577 59.2589 211.577 59.3762M211.401 59.1362L191.641 70.5602C191.311 77.8562 190.223 84.1389 188.377 89.4083C188.057 90.3256 188.297 90.5122 189.097 89.9682C189.897 89.428 190.69 88.8974 191.474 88.3729C202.599 80.9293 211.891 74.7117 211.577 59.3762M211.401 59.1362C211.348 59.1256 211.295 59.1256 211.241 59.1362H211.401ZM211.577 59.3762H212.077C212.077 59.3742 212.077 59.3721 212.077 59.37C212.076 59.2268 212.038 59.0712 211.937 58.9326C211.835 58.7944 211.7 58.7127 211.572 58.6663L211.537 58.6534L211.499 58.6459C211.381 58.6223 211.261 58.6223 211.143 58.6459L211.119 58.6509L211.094 58.6583C210.882 58.7235 210.688 58.8361 210.535 59.0087C210.382 59.1812 210.294 59.3876 210.254 59.6052L210.253 59.6066C209.786 62.1701 208.85 64.164 207.471 65.624C203.374 69.9166 199.649 74.3047 196.296 78.7884C197.209 75.3778 197.183 72.2481 196.848 69.1761C196.687 67.6984 196.454 66.2267 196.22 64.7491C196.177 64.4768 196.133 64.2043 196.091 63.9315C195.815 62.1733 195.555 60.3953 195.42 58.5421C195.398 58.2004 195.363 57.91 195.305 57.6913C195.276 57.5841 195.235 57.4625 195.167 57.355C195.101 57.2518 194.96 57.0856 194.716 57.0527C194.474 57.0202 194.296 57.1407 194.206 57.2198C194.111 57.3033 194.037 57.4073 193.979 57.5024C193.86 57.6966 193.742 57.9661 193.621 58.2895L193.621 58.2902C192.173 62.1903 191.347 66.273 191.142 70.5362L191.142 70.5376C190.813 77.799 189.731 84.0312 187.905 89.243L187.905 89.2436C187.82 89.4882 187.758 89.7203 187.744 89.9231C187.731 90.0951 187.74 90.4207 188.01 90.6309C188.283 90.8426 188.601 90.7683 188.765 90.7121C188.957 90.6462 189.164 90.5273 189.377 90.3825L211.577 59.3762Z" stroke="#657ED4" stroke-opacity="0.37"/>
<path d="M76.5374 80.6242C75.0334 74.3096 75.4121 67.4562 77.6734 60.0642C77.8868 59.3816 78.1054 59.3816 78.3294 60.0642C80.5374 66.8642 80.8414 74.8003 81.6734 82.0483C81.9774 84.7523 82.9054 87.6162 84.1374 90.0642C84.6708 91.1202 84.4361 91.3389 83.4334 90.7202C73.0974 84.3202 60.2494 77.3923 61.3214 63.1203C61.3961 62.1069 61.6468 62.0589 62.0734 62.9762C62.9374 64.8322 63.9774 67.0082 65.4174 68.4322C69.6948 72.6136 73.2361 76.7523 76.0415 80.8483C76.6068 81.6803 76.7721 81.6056 76.5374 80.6242Z" fill="#657ED4"/>
<path d="M65.768 68.0757C69.7433 71.9619 73.0915 75.8171 75.8092 79.6417C74.5732 73.5331 75.0426 66.955 77.1953 59.918L77.1962 59.9151C77.2542 59.7295 77.3233 59.5529 77.4119 59.4129C77.4821 59.3021 77.6665 59.0522 77.9974 59.0522C78.3256 59.0522 78.511 59.2988 78.582 59.4082C78.6721 59.5472 78.7437 59.7229 78.8045 59.9084L78.805 59.9098C80.5285 65.2178 81.1052 71.2219 81.6599 76.9969C81.8225 78.6891 81.9831 80.3616 82.1702 81.9912L82.1703 81.9924C82.4667 84.6288 83.3744 87.4356 84.5838 89.8388L65.768 68.0757ZM65.768 68.0757C64.4037 66.726 63.3985 64.6379 62.5268 62.7654L65.768 68.0757ZM83.1709 91.1457L83.1702 91.1453C82.5532 90.7633 81.9259 90.3786 81.292 89.9899C76.6427 87.1389 71.6384 84.0702 67.7481 80.228C63.3052 75.84 60.2729 70.4042 60.8228 63.0828C60.8424 62.8178 60.8753 62.581 60.9324 62.3947C60.9607 62.3024 61.0032 62.1944 61.0728 62.0969C61.1437 61.9977 61.2714 61.8715 61.4714 61.8332C61.6724 61.7947 61.8385 61.8656 61.942 61.9334C62.0429 61.9997 62.1216 62.0859 62.1808 62.1619C62.3005 62.3155 62.415 62.5251 62.5267 62.7652L83.1709 91.1457ZM83.1709 91.1457C83.4329 91.3074 83.6758 91.4345 83.8876 91.503M83.1709 91.1457L83.8876 91.503M83.8876 91.503C83.9933 91.5371 84.118 91.5657 84.2484 91.5629M83.8876 91.503L84.2484 91.5629M84.2484 91.5629C84.3832 91.5599 84.557 91.5214 84.7023 91.386M84.2484 91.5629L84.7023 91.386M84.7023 91.386C84.8471 91.2511 84.8977 91.0813 84.911 90.9486M84.7023 91.386L84.911 90.9486M84.911 90.9486C84.9238 90.8196 84.9056 90.6935 84.8803 90.5852M84.911 90.9486L84.8803 90.5852M84.8803 90.5852C84.8294 90.3682 84.7232 90.1151 84.5841 89.8394L84.8803 90.5852Z" stroke="#657ED4" stroke-opacity="0.37"/>
<path d="M182.778 96.2883C186.826 93.4243 191.162 90.9123 195.722 88.8643C199.764 87.0509 203.098 84.0429 205.722 79.8403C205.796 79.7016 205.914 79.6216 206.074 79.6003C206.244 79.5683 206.399 79.6003 206.538 79.6963C206.623 79.7603 206.644 79.8403 206.602 79.9363C203.242 89.4403 196.954 96.0429 187.738 99.7443C183.562 101.424 179.354 101.088 175.05 102.512C173.524 103.014 173.274 102.646 174.298 101.408C177.242 97.8563 179.258 94.0643 180.346 90.0323C181.962 84.0483 184.81 78.6243 188.506 73.6963C189.103 72.8963 189.327 72.9869 189.178 73.9683C187.978 81.6003 187.37 89.5843 182.394 95.9043C181.626 96.8856 181.754 97.0136 182.778 96.2883Z" fill="#657ED4"/>
<path d="M183.606 95.1036C187.373 89.6573 188.327 83.1493 189.251 76.8491C189.389 75.9086 189.526 74.9729 189.672 74.0459L189.672 74.0435C189.711 73.7869 189.732 73.554 189.718 73.3645C189.712 73.271 189.695 73.1574 189.65 73.0475C189.603 72.9358 189.504 72.7796 189.309 72.7008C189.116 72.6225 188.937 72.6649 188.828 72.7104C188.719 72.7556 188.628 72.8235 188.557 72.8849C188.413 73.0092 188.261 73.1879 188.105 73.3969C184.377 78.3673 181.498 83.8476 179.863 89.9019L179.863 89.902C178.795 93.8578 176.816 97.5866 173.913 101.089L173.912 101.09C173.648 101.409 173.441 101.701 173.318 101.956C173.257 102.084 173.204 102.227 173.187 102.376C173.169 102.529 173.186 102.72 173.304 102.894C173.423 103.068 173.594 103.153 173.743 103.193C173.889 103.231 174.041 103.234 174.182 103.224C174.464 103.203 174.811 103.117 175.206 102.987L175.207 102.987C177.158 102.341 179.09 102.065 181.058 101.784C181.21 101.763 181.361 101.741 181.513 101.719C183.625 101.415 185.774 101.073 187.924 100.208L183.606 95.1036ZM183.606 95.1036C187.356 92.543 191.343 90.2828 195.517 88.4081L195.517 88.408C199.455 86.6417 202.714 83.7097 205.29 79.5869C205.442 79.3166 205.692 79.1506 205.994 79.1065C206.287 79.0547 206.574 79.1132 206.822 79.2852L206.83 79.2906L206.838 79.2963C206.944 79.3759 207.054 79.4992 207.101 79.6754C207.145 79.8422 207.117 79.9962 207.068 80.117C203.66 89.7465 197.271 96.4542 187.924 100.208L183.606 95.1036Z" stroke="#657ED4" stroke-opacity="0.37"/>
<path d="M90.8894 97.7923C87.8388 94.6883 86.0254 91.3976 85.4494 87.9202C84.7881 83.8562 83.9561 79.7549 82.9534 75.6162C82.5481 73.9202 82.8894 73.7549 83.9774 75.1202C87.6254 79.6856 90.3134 85.0136 92.0414 91.1043C93.1294 94.9443 95.1614 98.6456 98.1374 102.208C98.7134 102.891 98.5748 103.11 97.7214 102.864C95.4708 102.192 93.1401 101.723 90.7294 101.456C79.3054 100.208 70.4574 93.0723 66.3134 82.3043C65.5988 80.4269 65.8654 80.2723 67.1134 81.8403C69.5454 84.8963 72.5854 87.6643 76.1214 89.3603C80.9854 91.6856 85.8388 94.5763 90.6814 98.0323C91.6841 98.7469 91.7534 98.6669 90.8894 97.7923Z" fill="#657ED4"/>
<path d="M84.368 74.8081C88.0609 79.4296 90.7778 84.8185 92.5225 90.9678L92.5225 90.968C93.5884 94.7299 95.5826 98.3696 98.5204 101.887C98.6735 102.068 98.8037 102.247 98.8853 102.415C98.9481 102.545 99.0753 102.856 98.8877 103.152C98.6979 103.451 98.3584 103.465 98.214 103.461C98.027 103.456 97.8107 103.41 97.5833 103.345L97.5784 103.343L97.5784 103.343C95.3575 102.68 93.0565 102.217 90.6748 101.953C79.0552 100.684 70.0544 93.4171 65.8468 82.4839L65.8462 82.4822C65.6652 82.0069 65.5373 81.6176 65.4732 81.3269C65.4419 81.1853 65.4188 81.0368 65.4238 80.9008C65.4273 80.8043 65.4506 80.5079 65.7266 80.3478C66.0051 80.1862 66.275 80.3167 66.3607 80.3629C66.4808 80.4276 66.5969 80.5231 66.7026 80.6217C66.9196 80.8242 67.1887 81.1319 67.5047 81.5289L67.5047 81.5289C69.905 84.5452 72.8889 87.2553 76.3374 88.9093C80.4532 90.877 84.5587 93.2458 88.6541 96.0147L84.368 74.8081ZM84.368 74.8081C84.3682 74.8083 84.3683 74.8085 84.3685 74.8086L83.9778 75.12L84.368 74.8081Z" stroke="#657ED4" stroke-opacity="0.37"/>
<path d="M167.625 105.024C173.161 104.502 178.687 103.883 184.201 103.168C188.313 102.64 191.625 100.608 194.681 97.9202C194.727 97.8846 194.784 97.8658 194.842 97.8669C194.901 97.8679 194.957 97.8888 195.002 97.9261C195.046 97.9634 195.077 98.0149 195.089 98.072C195.1 98.1291 195.092 98.1885 195.065 98.2403C189.017 108.032 177.897 112.496 166.681 109.44C163.812 108.662 160.692 107.968 157.321 107.36C154.985 106.934 154.932 106.31 157.161 105.488C165.209 102.528 171.001 94.9443 177.817 89.5043C178.585 88.8856 178.788 89.0402 178.425 89.9682C176.804 94.1282 174.729 97.9149 172.201 101.328C170.937 103.04 169.289 103.616 167.481 104.496C166.521 104.955 166.569 105.131 167.625 105.024Z" fill="#657ED4"/>
<path d="M178.891 90.1498C177.255 94.3488 175.159 98.1746 172.604 101.625C171.544 103.061 170.213 103.761 168.847 104.405L178.891 90.1498ZM178.891 90.1498C178.891 90.1499 178.891 90.1501 178.891 90.1502L178.425 89.9683L178.891 90.1498ZM166.681 109.44L166.55 109.923C166.55 109.923 166.55 109.923 166.55 109.923C163.697 109.148 160.591 108.458 157.233 107.852L157.231 107.852C156.635 107.743 156.148 107.616 155.796 107.461C155.62 107.384 155.452 107.288 155.318 107.165C155.181 107.039 155.052 106.856 155.031 106.615C155.01 106.374 155.106 106.172 155.22 106.024C155.331 105.88 155.481 105.757 155.641 105.651C155.961 105.438 156.419 105.229 156.988 105.019L156.989 105.019C160.923 103.572 164.326 100.987 167.619 98.053C168.817 96.9853 170.007 95.8641 171.204 94.7376C173.265 92.7964 175.343 90.8395 177.505 89.1141L167.625 105.024C173.161 104.502 178.687 103.883 184.201 103.168C188.313 102.64 191.625 100.608 194.681 97.9202C194.727 97.8846 194.784 97.8658 194.842 97.8669C194.901 97.8679 194.957 97.8888 195.002 97.9261C195.046 97.9634 195.077 98.0149 195.089 98.072C195.1 98.1291 195.092 98.1885 195.065 98.2403C189.017 108.032 177.897 112.496 166.681 109.44ZM166.681 109.44C163.812 108.662 160.692 107.968 157.321 107.36M166.681 109.44L157.321 107.36M157.321 107.36C154.985 106.934 154.932 106.31 157.161 105.488C162.671 103.462 167.124 99.2676 171.572 95.0781C173.62 93.1484 175.668 91.2197 177.817 89.5043L157.321 107.36Z" stroke="#657ED4" stroke-opacity="0.37"/>
<path d="M104.97 104.88C98.7617 102.224 96.3617 95.8723 93.5777 90.3363C93.087 89.3657 93.2843 89.195 94.1697 89.8243C97.7003 92.331 100.932 95.195 103.866 98.4163C107.738 102.672 111.69 104.544 117.018 106.032C118.234 106.384 118.239 106.747 117.034 107.12C102.922 111.504 88.4737 114.08 78.3297 100.72C76.8044 98.7043 77.0337 98.4803 79.0177 100.048C81.4497 101.979 83.9884 103.152 86.6337 103.568C91.9777 104.4 98.0417 105.024 104.826 105.44C105.967 105.515 106.015 105.328 104.97 104.88Z" fill="#657ED4"/>
<path d="M97.5724 98.9637C99.1445 101.346 101.087 103.466 103.788 104.874C97.4467 104.46 91.7548 103.86 86.7111 103.074C84.1639 102.674 81.7038 101.542 79.3286 99.6567L79.3277 99.6561C78.8277 99.2609 78.4219 98.9654 78.1182 98.781C77.9698 98.6909 77.8214 98.612 77.6849 98.5663C77.6177 98.5437 77.5251 98.5193 77.4213 98.5193C77.3154 98.5193 77.148 98.5462 77.0083 98.6826C76.8685 98.8192 76.8377 98.9861 76.8354 99.0922C76.8331 99.1961 76.8555 99.2893 76.8766 99.357C76.9194 99.4945 76.995 99.6446 77.0819 99.7947C77.2598 100.102 77.5466 100.514 77.931 101.022L77.9315 101.023C83.0969 107.826 89.3815 110.585 96.1578 111.073C102.902 111.558 110.119 109.792 117.182 107.598C117.497 107.5 117.769 107.393 117.972 107.269C118.137 107.168 118.439 106.944 118.434 106.561C118.428 106.18 118.122 105.964 117.955 105.867C117.749 105.746 117.474 105.644 117.157 105.552L117.152 105.551C111.882 104.079 108.025 102.245 104.236 98.0798L104.235 98.0797C101.278 94.832 98.0192 91.9441 94.4591 89.4166C94.2287 89.2528 94.0154 89.1206 93.8297 89.0419C93.7381 89.0031 93.6251 88.965 93.5035 88.9554C93.3806 88.9456 93.1926 88.962 93.0306 89.1021C92.8689 89.242 92.8255 89.4253 92.8171 89.5477C92.8088 89.6692 92.8296 89.7863 92.8544 89.8828C92.9046 90.0782 93.0036 90.3089 93.1312 90.5614C93.4645 91.2241 93.7946 91.9039 94.1283 92.5911C95.1714 94.739 96.25 96.9602 97.5724 98.9637Z" stroke="#657ED4" stroke-opacity="0.37"/>
<path d="M130.889 108.864C126.996 109.536 123.391 111.104 120.073 113.568C110.068 121.003 100.585 120.859 91.6254 113.136C90.1427 111.856 90.3134 111.563 92.1374 112.256C99.2574 114.976 105.641 114.096 112.217 110.848C119.257 107.36 126.345 106.102 133.481 107.072C135.625 107.371 137.823 107.27 140.073 106.768C148.057 105.008 155.385 108.416 162.633 111.568C168.025 113.92 175.001 113.648 180.457 111.456C182.836 110.507 183.065 110.88 181.145 112.576C174.809 118.176 167.599 119.76 159.513 117.328C153.033 115.36 148.281 108.672 141.289 108.704C140.276 108.704 140.217 108.939 141.113 109.408C146.041 111.958 150.713 115.334 155.129 119.536C155.887 120.251 155.892 120.976 155.145 121.712L154.777 122.064C153.977 122.843 153.151 122.875 152.297 122.16L139.369 111.168C138.79 110.675 138.08 110.362 137.326 110.268C136.572 110.174 135.809 110.303 135.129 110.64C129.321 113.488 124.841 117.76 120.441 122.416C119.748 123.152 119.007 123.2 118.217 122.56L116.873 121.488C116.287 121.019 116.271 120.528 116.825 120.016C121.135 116.059 125.929 112.646 131.209 109.776C132.937 108.838 132.831 108.534 130.889 108.864Z" fill="#657ED4"/>
<path d="M91.2989 113.515L91.2986 113.515C90.9224 113.19 90.6301 112.91 90.4394 112.681C90.3461 112.57 90.2566 112.446 90.1988 112.317C90.1505 112.21 90.0618 111.958 90.2092 111.705C90.3583 111.449 90.624 111.404 90.7431 111.394C90.8841 111.383 91.0357 111.403 91.1777 111.431C91.4685 111.489 91.8521 111.613 92.3151 111.789L92.3158 111.789C99.2802 114.45 105.518 113.6 111.996 110.4C111.996 110.4 111.996 110.4 111.996 110.4L112.217 110.848L91.2989 113.515ZM91.2989 113.515C95.8451 117.433 100.565 119.462 105.45 119.536C110.331 119.61 115.308 117.732 120.372 113.97C123.612 111.563 127.125 110.031 130.915 109.367M91.2989 113.515L130.915 109.367M159.369 117.807L159.368 117.807C156.586 116.962 154.109 115.268 151.72 113.635C151.249 113.312 150.782 112.993 150.316 112.682C147.604 110.875 144.927 109.36 141.823 109.215C146.62 111.757 151.17 115.078 155.473 119.173M159.369 117.807L155.129 119.536M159.369 117.807C167.621 120.289 175.011 118.665 181.477 112.951L159.369 117.807ZM155.473 119.173C155.473 119.174 155.474 119.174 155.474 119.174L155.129 119.536M155.473 119.173C155.473 119.173 155.473 119.173 155.473 119.173L155.129 119.536M155.473 119.173C155.907 119.583 156.197 120.064 156.201 120.613C156.205 121.161 155.923 121.648 155.496 122.068L155.491 122.074L155.126 122.423L154.777 122.064M155.129 119.536C155.887 120.251 155.892 120.976 155.145 121.712L154.777 122.064M154.777 122.064L155.123 122.426L155.125 122.424M154.777 122.064C153.977 122.843 153.151 122.875 152.297 122.16L139.369 111.168C138.79 110.675 138.08 110.362 137.326 110.268C136.572 110.174 135.809 110.303 135.129 110.64C129.321 113.488 124.841 117.76 120.441 122.416C119.748 123.152 119.007 123.2 118.217 122.56L116.873 121.488C116.287 121.019 116.271 120.528 116.825 120.016C121.135 116.059 125.929 112.646 131.209 109.776C131.6 109.564 131.897 109.384 132.101 109.237L155.125 122.424M155.125 122.424C154.668 122.868 154.151 123.15 153.577 123.172C153.002 123.194 152.465 122.953 151.976 122.544L151.974 122.541L139.045 111.549L139.045 111.549C138.54 111.118 137.921 110.846 137.264 110.764C136.608 110.682 135.943 110.795 135.352 111.088L135.35 111.089C129.627 113.896 125.198 118.111 120.805 122.76C120.403 123.186 119.934 123.468 119.398 123.503C118.862 123.538 118.36 123.319 117.904 122.95C117.904 122.95 117.903 122.949 117.902 122.949L116.562 121.879L116.561 121.879C116.214 121.601 115.936 121.239 115.922 120.785C115.907 120.331 116.16 119.95 116.486 119.649L116.487 119.648C120.812 115.676 125.622 112.249 130.915 109.367M155.125 122.424L130.915 109.367M162.633 111.568C168.025 113.92 175.001 113.648 180.457 111.456L133.481 107.072C135.625 107.371 137.823 107.27 140.073 106.768C147.746 105.077 154.813 108.159 161.786 111.199C162.068 111.322 162.351 111.445 162.633 111.568Z" stroke="#657ED4" stroke-opacity="0.37"/>
</svg>
