<svg width="393" height="401" viewBox="0 0 393 401" fill="none" xmlns="http://www.w3.org/2000/svg">
<path d="M86.5279 88.6932C86.91 88.4517 87.4353 87.769 87.7696 87.4376C95.8374 79.4015 104.683 72.3337 114.305 66.2341C127.232 58.0399 141.562 51.2698 156.282 47.028C173.549 42.0521 191.006 40.0314 208.653 40.9659C243.132 42.7918 273.838 54.3618 300.77 75.6757C322.934 93.2132 339.629 116.386 350.073 142.665C350.108 142.753 350.169 142.828 350.247 142.882C350.325 142.935 350.417 142.963 350.512 142.963H392.219C392.236 142.963 392.253 142.959 392.269 142.951C392.284 142.943 392.297 142.932 392.307 142.918C392.317 142.905 392.324 142.889 392.327 142.872C392.33 142.856 392.328 142.839 392.323 142.823C382.202 109.998 364.231 80.4063 339.446 56.6409C325.438 43.2076 310.048 32.1105 293.275 23.3498C248.113 -0.24144 196.343 -4.94113 147.079 8.23094C128.232 13.2734 109.599 21.9957 93.2615 32.3727C64.2205 50.8147 40.9159 76.4285 24.4037 106.801C8.13036 136.735 0.368698 171.035 1.04008 205.028C1.59629 233.393 7.92904 260.359 20.0383 285.926C50.8434 350.966 114.159 394.834 186.036 400.098C214.184 402.16 241.552 398.506 268.142 389.137C269.912 388.513 271.666 387.86 273.406 387.176C300.331 376.595 323.891 360.909 344.087 340.117C356.258 327.587 366.696 313.746 375.401 298.595C375.874 297.771 376.295 296.946 376.662 296.12C376.674 296.094 376.678 296.065 376.676 296.037C376.674 296.008 376.665 295.98 376.649 295.956C376.633 295.932 376.612 295.912 376.587 295.898C376.562 295.884 376.533 295.876 376.505 295.876H329.8C329.684 295.876 329.59 295.924 329.519 296.019C315.396 314.91 298.027 330.018 277.412 341.345C275.775 342.244 274.114 343.109 272.429 343.94C246.961 356.509 219.962 362.05 191.433 360.565C189.56 360.468 187.693 360.327 185.831 360.144C156.228 357.22 129.532 346.942 105.742 329.308C86.5279 315.062 70.7715 296.463 59.4506 275.389C51.0906 259.828 45.5688 243.305 42.8851 225.819C38.2697 195.758 41.9244 164.186 54.3295 136.426C62.2326 118.742 72.8708 102.908 86.2442 88.9264C86.3285 88.8365 86.4231 88.7588 86.5279 88.6932Z" fill="#3E3C44" stroke="#9C9B9D" stroke-width="0.561829"/>
<path d="M110.392 80.7068C110.272 80.7518 110.19 80.7911 110.147 80.8248C76.9122 106.101 55.2678 143.553 51.2844 185.246C51.1084 187.082 50.9557 188.948 50.8265 190.845C49.1279 215.865 53.3566 239.674 63.5126 262.273C67.6964 271.579 72.9616 280.68 79.3084 289.578C80.2298 290.87 81.2692 292.098 82.2861 293.32C82.3463 293.391 82.4315 293.436 82.524 293.446C82.6166 293.456 82.7095 293.43 82.7833 293.373C93.2558 285.253 104.462 278.319 116.403 272.571C116.443 272.552 116.478 272.524 116.506 272.489C116.533 272.454 116.552 272.414 116.561 272.37C116.57 272.327 116.57 272.283 116.559 272.24C116.548 272.197 116.527 272.158 116.499 272.125C93.5592 244.828 84.8312 208.444 93.8261 173.715C102.616 139.772 126.185 111.978 158.717 98.5758C209.523 77.6477 265.984 96.8987 295.065 142.665C295.121 142.753 295.198 142.825 295.289 142.875C295.379 142.925 295.481 142.952 295.584 142.952H339.626C339.668 142.952 339.71 142.942 339.747 142.922C339.784 142.902 339.816 142.873 339.839 142.838C339.862 142.803 339.876 142.763 339.88 142.721C339.883 142.679 339.876 142.636 339.859 142.598C327.411 113.77 308.156 90.9115 282.095 74.0211C280.518 73.0004 278.923 72.02 277.311 71.0799C252.891 56.8628 225.123 49.5281 196.711 50.3119C165.386 51.1743 135.517 61.6496 110.479 80.5973C110.456 80.6141 110.442 80.6338 110.437 80.6563C110.431 80.6806 110.416 80.6975 110.392 80.7068Z" fill="#3E3C44" stroke="#9C9B9D" stroke-width="0.561829"/>
<path d="M183.196 151.685C183.772 161.925 190.028 170.821 198.686 176.013C198.791 176.076 198.911 176.109 199.033 176.109C199.155 176.108 199.274 176.074 199.377 176.01C205.711 172.098 210.235 166.63 212.951 159.607C215.254 153.652 215.757 148.104 214.156 142.03C211.704 132.723 206.653 125.016 199.003 118.911C198.921 118.846 198.84 118.848 198.762 118.917C189.337 126.923 182.488 139.123 183.196 151.685Z" fill="#6B7A2F"/>
<path d="M154.641 160.366C155.386 182.446 170.847 202.545 194.607 201.02C195.09 200.989 195.374 200.733 195.427 200.23C195.757 197.12 195.659 194.096 195.135 191.16C191.711 171.965 173.03 160.967 154.841 160.166C154.814 160.165 154.788 160.169 154.763 160.179C154.738 160.189 154.716 160.203 154.697 160.222C154.678 160.241 154.664 160.263 154.654 160.288C154.644 160.313 154.64 160.339 154.641 160.366Z" fill="#6B7A2F"/>
<path d="M206.088 200.992C229.935 202.714 245.025 182.131 245.916 160.394C245.917 160.365 245.912 160.335 245.902 160.308C245.891 160.281 245.875 160.256 245.854 160.235C245.834 160.215 245.809 160.198 245.782 160.188C245.755 160.178 245.726 160.173 245.697 160.175C224.117 161.091 203.003 176.353 205.122 200.154C205.183 200.843 205.461 200.947 206.088 200.992Z" fill="#6B7A2F"/>
<path d="M284.856 276.608C295.887 282.563 306.21 289.54 315.827 297.539C315.857 297.564 315.892 297.583 315.929 297.595C315.967 297.606 316.006 297.61 316.045 297.607C316.084 297.603 316.122 297.592 316.157 297.573C316.192 297.555 316.223 297.53 316.248 297.5C325.496 286.493 333.23 274.119 338.955 260.894C348.875 237.98 352.889 213.881 350.998 188.595C350.96 188.095 350.9 187.674 350.818 187.333C350.793 187.242 350.734 187.196 350.641 187.196L263.417 187.213C263.364 187.213 263.313 187.234 263.276 187.272C263.238 187.31 263.217 187.361 263.217 187.415V225.119C263.218 225.157 263.234 225.192 263.26 225.219C263.287 225.245 263.323 225.26 263.361 225.26H308.237C308.295 225.26 308.353 225.271 308.408 225.294C308.462 225.316 308.511 225.349 308.553 225.391C308.594 225.432 308.627 225.481 308.649 225.535C308.672 225.59 308.683 225.648 308.683 225.706C308.685 225.809 308.667 225.94 308.627 226.097C304.17 244.645 295.572 260.973 282.834 275.083C282.806 275.113 282.786 275.149 282.774 275.188C282.763 275.228 282.76 275.269 282.766 275.31C282.773 275.35 282.788 275.389 282.811 275.423C282.835 275.457 282.865 275.486 282.901 275.507C283.547 275.885 284.199 276.252 284.856 276.608Z" fill="#3E3C44" stroke="#9C9B9D" stroke-width="0.561829"/>
<path d="M154.636 199.132C154.931 210.753 159.939 222.639 168.325 230.667C175.181 237.231 183.541 240.286 193.405 239.831C193.935 239.806 194.466 239.734 195 239.614C195.092 239.594 195.168 239.548 195.228 239.477C195.439 239.224 195.55 238.952 195.559 238.662C195.953 226.748 191.852 217.05 183.258 209.568C175.53 202.84 165.044 199.272 154.827 198.941C154.801 198.94 154.776 198.945 154.753 198.954C154.729 198.963 154.708 198.977 154.69 198.995C154.672 199.013 154.658 199.034 154.649 199.058C154.639 199.081 154.635 199.107 154.636 199.132Z" fill="#6B7A2F"/>
<path d="M244.77 199.003C223.328 200.081 203.296 215.518 205.093 238.839C205.13 239.325 205.439 239.721 205.914 239.755C216.866 240.493 226.097 236.979 233.609 229.215C241.362 221.203 245.458 210.264 245.947 199.213C245.952 199.108 245.909 199.033 245.818 198.986C245.531 198.837 244.986 198.991 244.77 199.003Z" fill="#6B7A2F"/>
<path d="M88.2527 300.564C120.858 336.814 168.052 355.758 216.799 350.503C252.579 346.646 285.37 330.336 310.167 304.371C310.213 304.322 310.248 304.265 310.271 304.202C310.294 304.139 310.304 304.073 310.3 304.006C310.295 303.94 310.277 303.875 310.247 303.816C310.216 303.757 310.174 303.705 310.122 303.663C278.981 278.343 243.223 264.828 202.846 263.119C202.774 263.116 202.705 263.085 202.655 263.032C202.604 262.98 202.576 262.91 202.576 262.838V242.69C202.576 242.62 202.549 242.553 202.499 242.504C202.45 242.454 202.382 242.426 202.312 242.426L195.742 242.429C195.586 242.429 195.509 242.506 195.509 242.66V262.692C195.509 262.779 195.475 262.862 195.414 262.924C195.353 262.986 195.27 263.022 195.183 263.023C155.46 263.645 119.859 275.835 88.382 299.592C87.9831 299.892 87.94 300.216 88.2527 300.564Z" fill="#6B7A2F"/>
</svg>
